<svg fill="#29B2E6" viewBox="0 0 29 24" xmlns="http://www.w3.org/2000/svg"><path d="M7.077 12.694H4.823V3.679l-2.69.866V2.644L6.834.896h.242v11.798zM18.418 7.822c0 1.63-.325 2.876-.975 3.739-.65.863-1.602 1.295-2.855 1.295-1.237 0-2.184-.424-2.839-1.27-.655-.848-.99-2.062-1.006-3.642V5.775c0-1.645.327-2.894.983-3.746.66-.853 1.609-1.279 2.846-1.279 1.238 0 2.184.423 2.84 1.27.655.842.99 2.053 1.006 3.634v2.168zm-2.254-2.379c0-.976-.13-1.685-.39-2.128-.255-.448-.656-.671-1.201-.671-.53 0-.924.213-1.178.639-.25.42-.383 1.081-.398 1.982V8.13c0 .96.125 1.675.374 2.144.255.464.66.696 1.217.696.551 0 .949-.224 1.193-.671.245-.448.372-1.133.383-2.056v-2.8zM27.59 7.822c0 1.63-.325 2.876-.975 3.739-.65.863-1.601 1.295-2.855 1.295-1.237 0-2.184-.424-2.839-1.27-.655-.848-.99-2.062-1.006-3.642V5.775c0-1.645.328-2.894.983-3.746.66-.853 1.61-1.279 2.847-1.279 1.237 0 2.184.423 2.839 1.27.655.842.99 2.053 1.006 3.634v2.168zm-2.254-2.379c0-.976-.13-1.685-.39-2.128-.255-.448-.655-.671-1.201-.671-.53 0-.923.213-1.178.639-.25.42-.382 1.081-.398 1.982V8.13c0 .96.125 1.675.375 2.144.254.464.66.696 1.216.696.551 0 .95-.224 1.194-.671.244-.448.371-1.133.382-2.056v-2.8zM3.065 18.808c.57 0 1.024.196 1.363.588.34.392.51.924.51 1.597v.06c0 .664-.19 1.196-.567 1.596-.378.4-.886.601-1.523.601-.64 0-1.151-.216-1.532-.647C.94 22.168.75 21.579.75 20.835v-.204c.005-1.037.174-1.847.505-2.432a2.228 2.228 0 011.502-1.112c.35-.08.576-.157.678-.234a.394.394 0 00.152-.328h.96c0 .446-.116.78-.349 1.005-.23.224-.64.398-1.231.52-.35.074-.627.217-.83.43-.202.213-.339.512-.41.899.378-.38.824-.571 1.338-.571zm-.226.997c-.281 0-.503.098-.665.293-.158.196-.238.514-.238.954 0 .392.078.692.234.899.156.204.382.307.678.307.287 0 .509-.101.665-.303.156-.201.235-.498.238-.89v-.102c0-.378-.081-.664-.242-.86-.16-.2-.382-.299-.67-.299zM8.221 23.16a1.406 1.406 0 01-.119-.413c-.287.333-.66.499-1.12.499-.436 0-.797-.13-1.084-.392a1.284 1.284 0 01-.427-.988c0-.488.174-.863.521-1.125.35-.26.855-.393 1.515-.396h.546v-.264c0-.213-.054-.383-.16-.51-.104-.129-.27-.192-.497-.192-.2 0-.357.05-.472.149a.518.518 0 00-.168.409H5.569c0-.267.08-.514.238-.742.16-.227.384-.404.674-.532.29-.13.615-.196.977-.196.547 0 .98.144 1.3.43.324.284.485.685.485 1.201v1.998c.003.437.062.768.177.992v.073H8.22zm-.981-.855c.175 0 .337-.04.484-.12a.795.795 0 00.329-.328v-.792h-.444c-.593 0-.91.213-.948.639l-.004.072c0 .154.052.28.156.38.104.099.246.149.427.149zM14.018 18.552v4.609H12.83v-3.612h-1.047l-.074 1.422c-.046.759-.19 1.31-.43 1.657-.241.347-.6.524-1.076.533h-.402l-.013-1.001.148-.013c.213-.017.37-.148.468-.392.099-.244.16-.66.185-1.248l.082-1.955h3.345zM18.796 18.552v4.609h-1.187v-3.612h-1.046l-.074 1.422c-.047.759-.19 1.31-.431 1.657s-.6.524-1.076.533h-.402l-.012-1.001.147-.013c.214-.017.37-.148.468-.392.099-.244.16-.66.185-1.248l.082-1.955h3.346zM19.526 20.814c0-.457.085-.865.255-1.222.17-.358.413-.635.73-.83.32-.197.692-.295 1.113-.295.6 0 1.088.19 1.466.57.38.381.592.898.636 1.551l.008.315c0 .707-.19 1.275-.57 1.704-.38.426-.891.639-1.532.639-.64 0-1.152-.213-1.535-.64-.38-.425-.57-1.004-.57-1.737v-.055zm1.187.09c0 .437.08.772.238 1.004.159.23.386.345.681.345a.78.78 0 00.673-.34c.162-.23.243-.597.243-1.1 0-.428-.081-.76-.242-.996a.779.779 0 00-.682-.353.765.765 0 00-.673.353c-.159.233-.238.595-.238 1.086zM24.543 23.16v-4.608h1.855c.605 0 1.069.111 1.392.333.323.221.484.539.484.954a.894.894 0 01-.205.575c-.134.167-.331.296-.591.387.317.063.566.186.747.37a.91.91 0 01.275.674c0 .428-.156.755-.468.98-.31.223-.76.336-1.35.336h-2.14zm1.186-1.912v.929h.957c.418 0 .628-.152.628-.456 0-.31-.2-.467-.6-.473h-.985zm0-.826h.735c.416-.006.624-.145.624-.417 0-.168-.058-.287-.172-.358-.113-.071-.285-.106-.518-.106h-.669v.881z"/></svg>
