<svg fill="#24C879" viewBox="0 0 29 13" xmlns="http://www.w3.org/2000/svg"><path d="M3.212 5.534H4.48c.604 0 1.052-.156 1.343-.469.291-.312.437-.727.437-1.244 0-.5-.146-.89-.437-1.168-.286-.278-.681-.417-1.187-.417-.456 0-.838.13-1.145.392-.308.256-.462.59-.462 1.006H.648a3.1 3.1 0 01.503-1.74c.34-.516.813-.92 1.418-1.21.61-.29 1.28-.434 2.01-.434 1.27 0 2.264.315 2.984.946.72.625 1.08 1.489 1.08 2.59a2.67 2.67 0 01-.503 1.57 3.29 3.29 0 01-1.319 1.099C7.497 6.705 8 7.08 8.33 7.58c.335.5.502 1.09.502 1.772 0 1.102-.39 1.986-1.17 2.65-.775.666-1.802.998-3.082.998-1.198 0-2.179-.327-2.943-.98C.88 11.367.5 10.503.5 9.429h2.382c0 .466.167.847.503 1.142.34.296.758.443 1.252.443.566 0 1.009-.153 1.327-.46.324-.313.487-.724.487-1.236 0-1.238-.66-1.858-1.978-1.858H3.212V5.534zM18.558 7.699c0 1.716-.344 3.028-1.03 3.937-.687.91-1.693 1.364-3.017 1.364-1.308 0-2.308-.446-3-1.338-.692-.892-1.047-2.17-1.063-3.835V5.543c0-1.733.346-3.049 1.038-3.946.698-.898 1.7-1.347 3.008-1.347s2.308.446 3 1.338c.693.886 1.047 2.162 1.064 3.827v2.284zm-2.382-2.506c0-1.028-.137-1.775-.412-2.241-.27-.472-.693-.708-1.27-.708-.56 0-.975.225-1.244.674-.264.443-.404 1.139-.42 2.088v3.017c0 1.011.131 1.764.395 2.258.27.489.698.733 1.286.733.582 0 1.003-.236 1.261-.707.258-.472.393-1.193.404-2.165V5.193zM28.25 7.699c0 1.716-.343 3.028-1.03 3.937-.687.91-1.692 1.364-3.017 1.364-1.307 0-2.307-.446-3-1.338-.692-.892-1.046-2.17-1.063-3.835V5.543c0-1.733.346-3.049 1.039-3.946.697-.898 1.7-1.347 3.008-1.347 1.307 0 2.307.446 3 1.338.692.886 1.046 2.162 1.063 3.827v2.284zm-2.382-2.506c0-1.028-.137-1.775-.412-2.241-.27-.472-.692-.708-1.27-.708-.56 0-.974.225-1.244.674-.263.443-.404 1.139-.42 2.088v3.017c0 1.011.132 1.764.396 2.258.269.489.697.733 1.285.733.583 0 1.003-.236 1.261-.707.259-.472.393-1.193.404-2.165V5.193z"/></svg>
