<svg fill="#FED888" viewBox="0 0 30 23" xmlns="http://www.w3.org/2000/svg"><path d="M15 9.882c.885 0 1.725-.105 2.366-.296L27.778 6.49c1.217-.361 1.472-.974 1.472-1.424 0-.45-.256-1.063-1.472-1.425L17.366.546C16.726.355 15.885.25 15 .25s-1.725.105-2.366.296L2.222 3.64C1.005 4.003.75 4.615.75 5.066c0 .45.255 1.063 1.472 1.424l10.412 3.096c.641.19 1.481.296 2.366.296z"/><path d="M15.001 11.537c-1.058 0-2.042-.127-2.846-.366L6.117 9.376v2.337c0 .775.508 1.866 2.929 2.665 1.603.53 3.718.822 5.955.822s4.353-.292 5.956-.822c2.42-.8 2.928-1.89 2.928-2.665V9.376l-6.038 1.795c-.804.24-1.788.366-2.846.366zm12.461 2.603V8.312l-1.67.497v5.332a2.606 2.606 0 00-1.79 2.464v3.545c0 1.434 1.178 2.6 2.625 2.6 1.446 0 2.623-1.166 2.623-2.6v-3.545c0-1.145-.75-2.118-1.788-2.465z"/></svg>